<svg xmlns="http://www.w3.org/2000/svg" version="1.1" xmlns:xlink="http://www.w3.org/1999/xlink" xmlns:svgjs="http://svgjs.dev/svgjs" width="1440" height="560" preserveAspectRatio="none" viewBox="0 0 1440 560"><g mask="url(&quot;#SvgjsMask1006&quot;)" fill="none"><path d="M -603.451266040096,143 C -507.45,211.2 -315.45,467.6 -123.45126604009596,484 C 68.55,500.4 164.55,262.8 356.54873395990404,225 C 548.55,187.2 644.55,292.8 836.548733959904,295 C 1028.55,297.2 1195.86,212 1316.548733959904,236 C 1437.24,260 1415.31,379.2 1440,415" stroke="rgba(7, 89, 133, 1)" stroke-width="2"></path><path d="M -174.76094558395846,330 C -78.76,316.6 113.24,272.6 305.23905441604154,263 C 497.24,253.4 593.24,310.6 785.2390544160415,282 C 977.24,253.4 1073.24,92.8 1265.2390544160417,120 C 1457.24,147.2 1710.29,392.2 1745.2390544160417,418 C 1780.19,443.8 1501.05,282.8 1440,249" stroke="rgba(7, 89, 133, 1)" stroke-width="2"></path><path d="M -256.207552549659,330 C -160.21,280.6 31.79,81.8 223.79244745034097,83 C 415.79,84.2 511.79,329.6 703.792447450341,336 C 895.79,342.4 991.79,82.8 1183.792447450341,115 C 1375.79,147.2 1612.55,484.8 1663.792447450341,497 C 1715.03,509.2 1484.76,240.2 1440,176" stroke="rgba(7, 89, 133, 1)" stroke-width="2"></path><path d="M -137.49636047535535,311 C -41.5,294.6 150.5,215.6 342.50363952464465,229 C 534.5,242.4 630.5,412 822.5036395246447,378 C 1014.5,344 1110.5,72.2 1302.5036395246448,59 C 1494.5,45.8 1755,303 1782.5036395246448,312 C 1810,321 1508.5,145.6 1440,104" stroke="rgba(7, 89, 133, 1)" stroke-width="2"></path><path d="M -525.98281667889,437 C -429.98,380.6 -237.98,156 -45.982816678890046,155 C 146.02,154 242.02,439.4 434.01718332110994,432 C 626.02,424.6 722.02,124.8 914.01718332111,118 C 1106.02,111.2 1288.82,406.4 1394.01718332111,398 C 1499.21,389.6 1430.8,140.4 1440,76" stroke="rgba(7, 89, 133, 1)" stroke-width="2"></path></g><defs><mask id="SvgjsMask1006"><rect width="1440" height="560" fill="#ffffff"></rect></mask></defs></svg>